<?xml version="1.0" encoding="utf-8"?>
<!-- Generator: Adobe Illustrator 26.4.1, SVG Export Plug-In . SVG Version: 6.00 Build 0)  -->
<svg version="1.1" id="Camada_1" xmlns="http://www.w3.org/2000/svg" xmlns:xlink="http://www.w3.org/1999/xlink" x="0px" y="0px"
	 viewBox="0 0 35 73" style="enable-background:new 0 0 35 73;" xml:space="preserve">
<style type="text/css">
	.st0{fill:#00C87E;}
	.st1{fill:none;}
</style>
<path class="st0" d="M31.7,12.2l-2.1-4C30.6,7.9,31.2,7,31.2,6V2.4c0-1.3-1.1-2.4-2.4-2.4H6.1C4.8,0,3.7,1.1,3.7,2.4V6
	c0,1,0.6,1.9,1.5,2.2l-2.1,4C1.1,16.2,0,20.8,0,25.3v38.6c0,1,0.1,2,0.4,2.8C1.6,70.5,5.1,73,9,73h17c1,0,2-0.1,2.8-0.4
	c3.7-1.3,6.1-4.6,6.1-8.5V25.3C35,20.8,33.8,16.2,31.7,12.2z M6.8,37.6c1.1-3.7,3.3-6.7,5.6-9.7c0.5-0.7,0.9-0.7,1.4,0
	c2.3,3,4.5,6,5.6,9.7c1.2,4.1-1.9,8.2-6.2,8.3C8.9,46,5.6,41.8,6.8,37.6z M23.9,55.2c-1.9,0.9-3.7,0.6-5.2-0.8c-1.5-1.3-2.1-3-1.5-5
	c0.8-2.7,2.4-4.9,4.1-7c0.2-0.3,0.4-0.7,0.9-0.3c1.4,1.1,4.5,6.9,4.5,9C26.7,52.8,25.7,54.3,23.9,55.2z M24.3,40.5
	c-2.6,0-4.7-2.5-4.1-5c0.6-2.4,2.1-4.4,3.6-6.3c0.4-0.5,0.6-0.3,0.9,0.1c1.4,1.8,2.8,3.7,3.5,5.9C29,37.8,27.1,40.5,24.3,40.5z"/>
</svg>
