<?xml version="1.0" encoding="utf-8"?>
<!-- Generator: Adobe Illustrator 26.4.1, SVG Export Plug-In . SVG Version: 6.00 Build 0)  -->
<svg version="1.1" id="Camada_1" xmlns="http://www.w3.org/2000/svg" xmlns:xlink="http://www.w3.org/1999/xlink" x="0px" y="0px"
	 viewBox="0 0 73 72.6" style="enable-background:new 0 0 73 72.6;" xml:space="preserve">
<style type="text/css">
	.st0{fill:#00C87E;}
	.st1{fill:none;}
</style>
<g>
	<path class="st0" d="M0.9,24.5l8.8,4.6c1,0.5,1.2,1.8,0.5,2.6l-5.3,5.8c0.1,0,0.1-0.1,0.2-0.1c0.8-0.4,1.6-0.8,2.4-1.3
		c0.4-0.2,4-1.8,8-3.6c-1-1.9-1.6-4-1.6-6.2c0-7.3,5.9-13.2,13.2-13.2c6.4,0,11.8,4.6,12.9,10.8c1.9-0.4,3.8-0.7,5.6-1.1
		c1.2-0.2,2.5-0.5,3.7-0.7c1.3-0.3,2.6-0.5,3.9-0.7c-0.2-0.1-0.4-0.2-0.7-0.3l-9.8-1.4c-1.1-0.2-1.8-1.3-1.3-2.3l3.7-9.2
		c0.6-1.5-1.1-3-2.5-2.1l-8.4,5.3c-0.9,0.6-2.2,0.1-2.5-0.9l-3.1-9.5c-0.5-1.6-2.7-1.6-3.2,0l-3.1,9.5c-0.3,1.1-1.6,1.5-2.5,0.9
		l-8.4-5.3C10,5.4,8.3,6.8,8.9,8.4l3.7,9.2c0.4,1-0.2,2.2-1.3,2.3l-9.8,1.4C-0.2,21.5-0.6,23.7,0.9,24.5z"/>
	<g>
		<path class="st0" d="M72.8,25.5c-0.1-2.7-1.7-3-3.8-3c-6.5-0.1-13,0.2-19.4,1.5c-3.3,0.7-6.6,1.4-10,2c-0.7,0.1-7.9,2.4-13.6,4.3
			c-3.2,1-17.1,7.2-17.8,7.6c-1.6,0.8-3.1,1.7-4.7,2.5C2.3,41,1.5,42,1.5,43.5c0,7.5,0,15,0,22.8c2.4-0.3,3.1-1.7,4.1-2.7
			c11.7-11.3,25-20.1,40.1-26.2c7.7-3.1,15.7-4.9,23.9-6.4C72.7,30.4,73,29.5,72.8,25.5z"/>
		<path class="st0" d="M6.1,72.5c3.5-4.9,7.3-7.9,11-10.9c14-11.5,29.7-19.6,47.5-23.4c1.3-0.3,2.6-0.6,3.9-0.6
			c1.5-0.1,3.6-1.5,4.2,1.4c0.8,3.6-0.1,6.1-2.8,6.8c-15.1,4.2-27.2,13.1-38.2,23.8c-2.2,2.1-4.4,3.1-7.4,3
			C18.6,72.4,12.9,72.5,6.1,72.5z"/>
		<path class="st0" d="M39,72.4c7.9-8.9,17.2-15,27.6-19.3c1-0.4,1.9-0.7,2.9-1c2-0.6,3.2,0.1,3.2,2.3c0,4,0.1,8-0.1,11.9
			c-0.2,3-2.6,5.9-5.6,6C57.8,72.5,48.4,72.4,39,72.4z"/>
	</g>
</g>
</svg>
