<?xml version="1.0" encoding="utf-8"?>
<!-- Generator: Adobe Illustrator 26.4.1, SVG Export Plug-In . SVG Version: 6.00 Build 0)  -->
<svg version="1.1" id="Camada_1" xmlns="http://www.w3.org/2000/svg" xmlns:xlink="http://www.w3.org/1999/xlink" x="0px" y="0px"
	 viewBox="0 0 47 73" style="enable-background:new 0 0 47 73;" xml:space="preserve">
<style type="text/css">
	.st0{fill:#00C87E;}
	.st1{fill:none;}
</style>
<path class="st0" d="M35,0H12C5.4,0,0,5.4,0,12V61c0,6.6,5.4,12,12,12h23c6.6,0,12-5.4,12-12V12C47,5.4,41.6,0,35,0z M19.5,28.1
	c0.5,1.5,0.8,3.7,2.9,4.2c1.7,0.5,3.1,1.6,4.7,2.2c1.6,0.6,3.1,1.8,4.3,3.1c3.8,4,3.7,12.9-3.8,15.1c-1.7,0.5-2.4,0.7-2.1,2.4
	c0.3,1.7-0.6,1.9-2.1,1.9c-1.4,0-2.4-0.1-2.1-1.8c0.2-1.7-0.1-2.3-2.2-2.4c-1.5-0.1-3-1.1-4.1-2.4c-1.3-1.6-2.4-4.6-1.8-5.3
	c0.8-0.8,5.4-0.3,6.6,0.7c0.5,0.5,0.9,1,1.5,1.5c1.6,1.1,3.7,0.7,5.3-1c1.4-1.5,1.3-2.5-0.3-4.2c-1.6-1.7-3.4-2.7-5.7-3.5
	c-7.2-2.3-8.8-8.7-6.5-13.9c1-2.3,2.9-3.1,4.6-4.1c1.1-0.7,2.5-2.1,2.7-3.3c0.2-1.7,1.5-0.9,2.4-1c0.8-0.1,1.8-0.3,1.7,1
	c0,0.5,0,1,0,1.5c-0.1,1,0.3,1.5,1.4,1.5c3.7,0.2,5.3,3,6.7,5.6c0.7,1.3-0.2,2.5-1.8,2.5c-0.5,0-0.9,0-1.5,0c-1.9,0-2.1,0.1-4.6-2.4
	c-1.3-1.1-2.7-1-3.8-0.6C20.9,25.7,19.1,26.8,19.5,28.1z"/>
</svg>
