<?xml version="1.0" encoding="utf-8"?>
<!-- Generator: Adobe Illustrator 26.4.1, SVG Export Plug-In . SVG Version: 6.00 Build 0)  -->
<svg version="1.1" id="Camada_1" xmlns="http://www.w3.org/2000/svg" xmlns:xlink="http://www.w3.org/1999/xlink" x="0px" y="0px"
	 viewBox="0 0 58.4 73" style="enable-background:new 0 0 58.4 73;" xml:space="preserve">
<style type="text/css">
	.st0{fill:#00C87E;}
	.st1{fill:none;}
</style>
<path class="st0" d="M58.4,7.1c0-0.7-0.2-1.3-0.4-1.9c-0.5-1.6-1.4-2.9-2.8-3.8C53.9,0.5,52.7,0,51.3,0c-10,0-20.1,0-30.1,0
	C16.5,0,11.7,0,7,0C6.9,0,6.8,0,6.7,0c0,0-0.1,0-0.1,0c0,0-0.1,0-0.1,0c-0.4,0-0.8,0.1-1.1,0.2C5,0.4,4.7,0.5,4.4,0.6
	c-0.1,0-0.1,0-0.2,0.1C4.2,0.7,4.1,0.8,4,0.8C3.9,0.9,3.8,0.9,3.7,1C3.6,1,3.6,1,3.5,1.1C3.4,1.1,3.3,1.2,3.2,1.3
	c-0.8,0.5-1.4,1.1-1.9,2c0,0,0,0,0,0.1C0.7,4.1,0.3,4.9,0.1,5.9C0.1,6.2,0,6.6,0,7.1c0,9.8,0,19.6,0,29.4c0,3.9,0,7.9,0,11.8
	c0,0.7,0,1.5,0,2.2c0,0,0,0,0,0c0,5.1,0,10.3,0,15.4c0,0.7,0.2,1.3,0.4,1.9c0.5,1.6,1.4,2.9,2.8,3.8C4.5,72.5,5.7,73,7.1,73
	c10,0,20.1,0,30.1,0c4.7,0,9.5,0,14.2,0c0.1,0,0.2,0,0.3,0c0,0,0.1,0,0.1,0c0,0,0.1,0,0.1,0c0.4,0,0.8-0.1,1.1-0.2
	c0.3-0.1,0.6-0.2,0.9-0.3c0.1,0,0.1,0,0.2-0.1c0.1,0,0.2-0.1,0.3-0.1c0.1-0.1,0.2-0.1,0.3-0.2c0.1,0,0.1-0.1,0.2-0.1
	c0.1-0.1,0.2-0.1,0.3-0.2c0.8-0.5,1.4-1.1,2-2c0,0,0,0,0-0.1c0.5-0.8,0.9-1.7,1.1-2.6c0.1-0.4,0.1-0.8,0.1-1.2c0-9.8,0-19.6,0-29.4
	c0-3.9,0-7.9,0-11.8c0-0.7,0-1.5,0-2.2c0,0,0,0,0,0C58.4,17.4,58.4,12.2,58.4,7.1z M32.8,61c-6,0-12.1,0-18.2,0c0-2.4,0-4.8,0-7.2
	c6.1,0,12.1,0,18.1,0C32.9,54.5,32.9,58.9,32.8,61z M43.8,50.6c-9.7,0-19.4,0-29.2,0c0-2.4,0-4.8,0-7.2c9.7,0,19.4,0,29.2,0
	C43.8,45.7,43.8,48.1,43.8,50.6z M43.8,40.1c-9.7,0-19.4,0-29.1,0c-0.1-0.7-0.2-4.8-0.1-7.2c9.7,0,19.4,0,29.1,0
	C43.8,35.3,43.8,37.7,43.8,40.1z M43.8,29.7c-9.7,0-19.4,0-29.1,0c-0.1-0.7-0.2-4.8-0.1-7.2c9.7,0,19.4,0,29.1,0
	C43.8,24.9,43.8,27.3,43.8,29.7z M43.8,19.2c-9.7,0-19.4,0-29.1,0c-0.1-0.7-0.2-4.8-0.1-7.2c9.7,0,19.4,0,29.1,0
	C43.8,14.4,43.8,16.8,43.8,19.2z"/>
</svg>
