<?xml version="1.0" encoding="utf-8"?>
<!-- Generator: Adobe Illustrator 26.4.1, SVG Export Plug-In . SVG Version: 6.00 Build 0)  -->
<svg version="1.1" id="Camada_1" xmlns="http://www.w3.org/2000/svg" xmlns:xlink="http://www.w3.org/1999/xlink" x="0px" y="0px"
	 viewBox="0 0 73 72.3" style="enable-background:new 0 0 73 72.3;" xml:space="preserve">
<style type="text/css">
	.st0{fill:#00C87E;}
	.st1{fill:none;}
</style>
<g>
	<path class="st0" d="M48.6,71.7c1.5-3.2,2.7-5.4,3.6-7.7c3.7-8.5,3-16.7-2.3-24.3C41,27.1,43.6,14.3,49,1.5c0.4-1,2.9-1.8,4.2-1.5
		c7.9,1.8,12.7,7.4,15.6,14.4c6.6,16,5.4,31.7-4,46.4C61.4,66.2,56.6,70,48.6,71.7z"/>
	<path class="st0" d="M47.8,50.3c-1-3.9-2.7-7.8-4.7-11.4c-5.5-10.1-6.3-20.3-1.6-31c1-2.3,1.5-4.9,2.3-7.5
		c-7.2-0.6-13.8,2.4-17.7,8.8c-1.9,3.1-3.5,6.2-4.7,9.4c0.6-0.1,1.2-0.1,1.7,0c5.2,1.2,9,4.7,11.3,10.4C39,40,38.1,50.5,31.8,60.4
		c-1.5,2.4-3.3,4.2-5.6,5.5c3.2,4,7.9,6.4,13.6,6.3c1.5,0,3.5-0.9,4.3-2.1C47.8,64.1,49.7,57.4,47.8,50.3z"/>
	<g>
		<path class="st0" d="M16.7,20.9c-0.5,1.6-0.8,3.3-1.5,4.8c-3,6.8-2.5,13.3,1,19.7c1.2,2.3,2.3,4.7,3,7.3c1.2,4.5,0,8.8-2.4,12.6
			c-0.5,0.7-1.8,1.3-2.7,1.3c-4.7,0-8.2-2.4-10.2-6.4c-5.8-11.5-5.2-22.8,1.5-33.8C7.9,22.4,12.1,20.5,16.7,20.9z"/>
		<path class="st0" d="M19.7,66.3c1-2.1,1.7-3.5,2.3-4.9c2.3-5.4,1.9-10.7-1.5-15.5c-5.7-8-4-16.2-0.5-24.3c0.3-0.6,1.9-1.1,2.7-0.9
			c5,1.1,8.1,4.7,9.9,9.2C36.8,40,36.1,50,30.1,59.3C27.9,62.8,24.8,65.2,19.7,66.3z"/>
	</g>
</g>
</svg>
