<?xml version="1.0" encoding="utf-8"?>
<!-- Generator: Adobe Illustrator 26.4.1, SVG Export Plug-In . SVG Version: 6.00 Build 0)  -->
<svg version="1.1" id="Camada_1" xmlns="http://www.w3.org/2000/svg" xmlns:xlink="http://www.w3.org/1999/xlink" x="0px" y="0px"
	 viewBox="0 0 73 66.2" style="enable-background:new 0 0 73 66.2;" xml:space="preserve">
<style type="text/css">
	.st0{fill:#00C87E;}
	.st1{fill:none;}
</style>
<g>
	<path class="st0" d="M34.8,5.9c2.5-1.2,5.1-2,7.8-2.7c4-1,8.1-1.8,12.1-2.9c5.7-1.6,9.4,2.3,7.9,8.1c-1,4-1.9,8-2.9,12
		c-1.9,8.2-6.2,14.9-13,20.1c-1,0.8-2,1.8-3.7,1.9c0.3-5,0.1-10-1-14.8c-1.5-6.4-4.8-12-8.4-17.4C31.7,7.5,31.7,7.4,34.8,5.9z"/>
	<path class="st0" d="M6,56.6C2.1,51.8,0,45,0,37.7c0-6.9,1.8-13.3,5.5-19.2c2.3-3.7,4.7-7.4,6.9-11.2c3.2-5.5,8.4-5.5,11.6,0
		c2.2,3.8,4.6,7.5,6.9,11.2c6,9.9,7.3,20.3,3.4,31.3c-0.9,2.5-2.2,4.7-3.8,6.8C23.7,65,12.8,65.1,6,56.6z"/>
	<path class="st0" d="M68.9,53.8c-3.8,2.2-7.5,4.6-11.2,6.9c-8.5,5.2-17.9,6.8-26.4,4.4c4.1-3.6,7.1-7.8,9.1-12.7
		c0.4-1,1.1-1.5,2-1.9c6.4-2.6,11.7-6.7,15.8-12.2c1.2-1.6,2.1-1.5,3.6-0.5c2.2,1.6,4.7,2.8,7.1,4.3C74.3,45.5,74.4,50.6,68.9,53.8z
		"/>
</g>
</svg>
