<?xml version="1.0" encoding="utf-8"?>
<!-- Generator: Adobe Illustrator 26.4.1, SVG Export Plug-In . SVG Version: 6.00 Build 0)  -->
<svg version="1.1" id="Camada_1" xmlns="http://www.w3.org/2000/svg" xmlns:xlink="http://www.w3.org/1999/xlink" x="0px" y="0px"
	 viewBox="0 0 38.3 73" style="enable-background:new 0 0 38.3 73;" xml:space="preserve">
<style type="text/css">
	.st0{fill:#00C87E;}
	.st1{fill:none;}
</style>
<path class="st0" d="M38.2,8c0-5.5-2-8-6.3-8C23.4,0,14.9,0,6.3,0C2.1,0.1,0,2.5,0,7.6C0,26.8,0,46,0,65.2c0,5.4,2,7.8,6.5,7.8
	c8.3,0,16.6,0,24.9,0c4.9,0,6.8-2.3,6.8-8.2c0-9.4,0-18.8,0-28.2C38.3,27.1,38.3,17.5,38.2,8z M23.5,69.4c-1.5,0-2.9,0-4.4,0
	c-1.4,0-2.7,0-4.1,0c-1,0-1.4-0.3-1.4-1.2c0-0.9,0.3-1.2,1.3-1.2c2.8,0,5.6,0,8.4,0c1.2,0,1.2,0.6,1.2,1.3
	C24.6,69,24.3,69.4,23.5,69.4z M35.4,58.4c0,2.8-0.6,3.7-2.9,3.6c-8.9-0.2-17.8-0.2-26.7,0c-2.3,0-3-0.7-2.9-3.6
	C3,50.1,2.9,41.7,2.9,33.3c0-8,0.1-16.1-0.1-24.1C2.8,6.4,3.4,5.5,5.8,5.6c1.1,0,2.2,0,3.3,0c0,0.1,0,0.2,0,0.3c0,1.5,0.7,2,2.5,2
	c2.5-0.1,5,0,7.4,0c2.7,0,5.4,0,8.1,0c1.6,0,2.1-0.5,2.1-1.8c0-0.2,0-0.4,0-0.5c1.1,0,2.2,0,3.3,0c2.3,0,2.9,0.7,2.9,3.6
	C35.3,25.6,35.3,42,35.4,58.4z"/>
</svg>
