<?xml version="1.0" encoding="utf-8"?>
<!-- Generator: Adobe Illustrator 26.4.1, SVG Export Plug-In . SVG Version: 6.00 Build 0)  -->
<svg version="1.1" id="Camada_1" xmlns="http://www.w3.org/2000/svg" xmlns:xlink="http://www.w3.org/1999/xlink" x="0px" y="0px"
	 viewBox="0 0 73 63.2" style="enable-background:new 0 0 73 63.2;" xml:space="preserve">
<style type="text/css">
	.st0{fill:#00C87E;}
	.st1{fill:none;}
</style>
<g>
	<path class="st0" d="M60.8,19.1H3c-1.7,0-3-1.3-3-3V7.2C0,3.2,3.2,0,7.2,0h49.4c4,0,7.2,3.2,7.2,7.2v8.9
		C63.8,17.7,62.4,19.1,60.8,19.1z"/>
	<path class="st0" d="M49.6,57.8v-1.3H28.1c-4.6,0-8.3-3.7-8.3-8.3v-4.1c0-4.6,3.7-8.3,8.3-8.3h21.5v-1.3c0-3.4,2-6.4,5.1-7.6
		c2.9-1.2,6.3-0.6,8.6,1.5v-6.7H0.4v34.3c0,4,3.2,7.2,7.2,7.2h44C50.3,61.7,49.6,59.8,49.6,57.8z"/>
	<path class="st0" d="M72,43.6L60.3,32c-2.2-2.2-6-0.6-6,2.5v6.1H28.1c-1.9,0-3.5,1.6-3.5,3.5v4.1c0,1.9,1.6,3.5,3.5,3.5h26.2v6.1
		c0,3.1,3.8,4.7,6,2.5L72,48.6C73.3,47.2,73.3,45,72,43.6z"/>
</g>
</svg>
