<?xml version="1.0" encoding="utf-8"?>
<!-- Generator: Adobe Illustrator 26.4.1, SVG Export Plug-In . SVG Version: 6.00 Build 0)  -->
<svg version="1.1" id="Camada_1" xmlns="http://www.w3.org/2000/svg" xmlns:xlink="http://www.w3.org/1999/xlink" x="0px" y="0px"
	 viewBox="0 0 69 73" style="enable-background:new 0 0 69 73;" xml:space="preserve">
<style type="text/css">
	.st0{fill:#00C87E;}
	.st1{fill:none;}
</style>
<g>
	<rect x="23" y="42.3" class="st1" width="7.7" height="7.7"/>
	<rect x="23" y="57.6" class="st1" width="7.7" height="7.7"/>
	<rect x="7.7" y="57.6" class="st1" width="7.7" height="7.7"/>
	<rect x="38.3" y="57.6" class="st1" width="7.7" height="7.7"/>
	<rect x="7.7" y="42.3" class="st1" width="7.7" height="7.7"/>
	<rect x="53.6" y="57.6" class="st1" width="7.7" height="7.7"/>
	<rect x="38.3" y="42.3" class="st1" width="7.7" height="7.7"/>
	<rect x="53.6" y="42.3" class="st1" width="7.7" height="7.7"/>
	<path class="st0" d="M69,15.5H49.8v1.2c0,0.1,0,0.3,0,0.5c0,1.3,0,2.6,0,3.9v0.2c0,3.9,0,7.8,0,11.7c0,1.6-0.6,1.8-1.9,1.8
		c-3-0.1-6,0-9,0V23.4l-3.4,1.9l-16.1,9.3v-1.2V23.4l-3.2,1.8L0.1,34.6c0,0,0,0,0,0.1C0,35.1,0,35.5,0,35.9c0,11.8,0.1,23.6,0,35.4
		C0,72.9,0.6,73,1.9,73c10.8,0,21.7,0,32.5,0c10.7,0,21.4,0,32,0c2.4,0,2.5,0,2.5-2.6c0-12.8,0-25.5,0-38.3c0-2.7,0-5.3,0-8h0V15.5z
		 M15.4,65.3H7.7v-7.7h7.7V65.3z M15.4,50H7.7v-7.7h7.7V50z M30.7,65.3H23v-7.7h7.7V65.3z M30.7,50H23v-7.7h7.7V50z M46,65.3h-7.7
		v-7.7H46V65.3z M46,50h-7.7v-7.7H46V50z M61.3,65.3h-7.7v-7.7h7.7V65.3z M53.6,50v-7.7h7.7V50H53.6z"/>
	<rect x="49.8" y="0" class="st0" width="19.2" height="8.7"/>
</g>
</svg>
