<?xml version="1.0" encoding="utf-8"?>
<!-- Generator: Adobe Illustrator 26.4.1, SVG Export Plug-In . SVG Version: 6.00 Build 0)  -->
<svg version="1.1" id="Camada_1" xmlns="http://www.w3.org/2000/svg" xmlns:xlink="http://www.w3.org/1999/xlink" x="0px" y="0px"
	 viewBox="0 0 73 53.2" style="enable-background:new 0 0 73 53.2;" xml:space="preserve">
<style type="text/css">
	.st0{fill:#00C87E;}
	.st1{fill:none;}
</style>
<path class="st0" d="M65.9,0H7.1C3.2,0,0,3.2,0,7.1v39.1c0,3.9,3.2,7.1,7.1,7.1h58.9c3.9,0,7.1-3.2,7.1-7.1V7.1
	C73,3.2,69.8,0,65.9,0z M35.6,12c1.3-0.6,2.7-1.1,4.2-1.4c2.2-0.5,4.3-0.9,6.5-1.5c3.1-0.9,5,1.2,4.2,4.3c-0.5,2.1-1,4.3-1.5,6.4
	c-1,4.4-3.3,8-6.9,10.7c-0.6,0.4-1.1,1-2,1c0.1-2.7,0.1-5.3-0.6-7.9c-0.8-3.4-2.5-6.4-4.5-9.3C33.9,12.9,34,12.8,35.6,12z
	 M20.2,39.2c-2.1-2.6-3.2-6.2-3.2-10.1c0-3.7,1-7.1,2.9-10.3c1.2-2,2.5-4,3.7-6c1.7-2.9,4.5-3,6.2,0c1.2,2,2.5,4,3.7,6
	c3.2,5.3,3.9,10.9,1.8,16.7c-0.5,1.3-1.2,2.5-2.1,3.6C29.6,43.7,23.8,43.7,20.2,39.2z M53.8,37.7c-2,1.2-4,2.5-6,3.7
	c-4.5,2.8-9.6,3.6-14.1,2.4c2.2-1.9,3.8-4.2,4.9-6.8c0.2-0.5,0.6-0.8,1.1-1c3.4-1.4,6.3-3.6,8.5-6.5c0.7-0.9,1.1-0.8,1.9-0.2
	c1.2,0.8,2.5,1.5,3.8,2.3C56.8,33.2,56.8,36,53.8,37.7z"/>
</svg>
