<?xml version="1.0" encoding="utf-8"?>
<!-- Generator: Adobe Illustrator 26.4.1, SVG Export Plug-In . SVG Version: 6.00 Build 0)  -->
<svg version="1.1" id="Camada_1" xmlns="http://www.w3.org/2000/svg" xmlns:xlink="http://www.w3.org/1999/xlink" x="0px" y="0px"
	 viewBox="0 0 67.7 73" style="enable-background:new 0 0 67.7 73;" xml:space="preserve">
<style type="text/css">
	.st0{fill:#00C87E;}
	.st1{fill:none;}
</style>
<g>
	<path class="st0" d="M61.6,14.4c-0.2,1-0.4,2.5-0.9,3.8C57,26.3,51.2,32.3,43,35.9c-2.5,1.1-5.4,2-7.6-0.1c-2.5-2.3-1.5-5.4-0.4-8
		c3.7-8.3,9.8-14.4,18.2-17.8C58.3,8,61.5,9.8,61.6,14.4z"/>
	<path class="st0" d="M4.3,18.8c1,0,2.5-0.2,3.8,0.1c8.8,1.6,16,5.9,21.3,13.1c1.6,2.1,3.1,4.8,1.6,7.5c-1.6,2.8-4.7,2.7-7.3,2.2
		c-9.1-1.6-16.6-6.1-22-13.7C-1.4,23.5-0.3,19.9,4.3,18.8z"/>
	<path class="st0" d="M14.4,73c-3.7,0.1-5.2-1.5-5-5.2c0.3-4.1,2.4-7.5,4.9-10.6c4.4-5.3,9.3-10.1,16.4-11.4c4.3-0.7,6.1,1,5.9,5.1
		C36.3,59.5,23,72.8,14.4,73z"/>
	<path class="st0" d="M45.8,40.9c3.6,0.3,6.7,2,9.4,4.2c5.7,4.4,10.8,9.4,12.3,16.9c0.9,4.7-1.1,6.6-5.7,6.1
		c-8.3-0.9-20.5-13.2-21.4-21.5C40,42.3,41.6,40.6,45.8,40.9z"/>
	<path class="st0" d="M23.1,5.4C23,1.7,24.5-0.2,27.6,0c7,0.4,11.8,4.9,16.3,9.6c1.3,1.3-0.4,1.8-1.1,2.6c-2,2.2-4.5,4.2-6,6.7
		c-2.2,3.8-3.8,2.7-6,0.2C27.1,14.9,23.6,10.6,23.1,5.4z"/>
</g>
</svg>
