<?xml version="1.0" encoding="utf-8"?>
<!-- Generator: Adobe Illustrator 26.4.1, SVG Export Plug-In . SVG Version: 6.00 Build 0)  -->
<svg version="1.1" id="Camada_1" xmlns="http://www.w3.org/2000/svg" xmlns:xlink="http://www.w3.org/1999/xlink" x="0px" y="0px"
	 viewBox="0 0 73 69.1" style="enable-background:new 0 0 73 69.1;" xml:space="preserve">
<style type="text/css">
	.st0{fill:#00C87E;}
	.st1{fill:none;}
</style>
<g>
	<path class="st0" d="M40.7,0c9.5,0,19.1,0,28.6,0C72.8,0,73,0.1,73,3.4c0,18.1,0.1,36.2,0,54.4c0,6.5-4.7,11.2-11.1,11.2
		c-16.8,0.1-33.7,0-50.5,0.1C5.4,69.1-0.2,63.2,0,57.9c0.4-9.8-1.1-8.2,7.9-8.2c14.6-0.1,29.2,0,43.9,0c1.3,0,2.5,0,3.8,0
		c1.3,0,2,0.7,2.1,2c0,1.1,0,2.2,0,3.3c0,0.9,0,1.9,0.2,2.8c0.4,1.7,1.6,2.9,3.3,3c1.8,0.1,2.9-1.2,3.4-2.8c0.3-0.9,0.3-1.9,0.3-2.8
		c0-14.6,0-29.2,0-43.9C65,8.1,64.9,8,61.9,8C47.6,8,33.3,8,19,8c-3.1,0-3.2,0.1-3.2,3.1c0,8.6,0,17.2,0,25.7c0,1.1,0,2.2,0,3.3
		c0,1.3-0.7,2-2,2.1c-0.2,0-0.3,0-0.5,0c-6.2,0.1-5.5-0.1-5.5-4.9c0-11.1,0-22.2,0-33.4c0-4,0.1-4,3.9-4C21.4,0,31.1,0,40.7,0z"/>
	<path class="st0" d="M48,19.1c2.4,0,4.7,0,7.1,0c1.7,0,2.7,0.6,2.6,2.5c0,0.9,0,1.9,0,2.8c0.1,2.1-1,2.7-2.9,2.7
		c-4.6-0.1-9.1-0.1-13.7,0c-1.9,0-3-0.6-2.9-2.7c0.1-1.1,0-2.2,0-3.3c0-1.4,0.8-2,2.1-2C42.9,19.1,45.5,19.1,48,19.1
		C48,19.1,48,19.1,48,19.1z"/>
	<path class="st0" d="M47.7,42.3c-2.4,0-4.7,0-7.1,0c-1.5,0-2.4-0.6-2.4-2.2c0-0.5,0-0.9,0-1.4c-0.1-4.2,0-4.3,4.1-4.3
		c4.1,0,8.2-0.1,12.3,0c2.8,0.1,2.9,0.2,3.1,2.9c0,0.8,0,1.6,0,2.4c0.1,2.1-1,2.8-2.9,2.7C52.5,42.3,50.1,42.4,47.7,42.3
		C47.7,42.4,47.7,42.3,47.7,42.3z"/>
	<path class="st0" d="M27.4,19.1c3.5,0.1,3.7,0.2,3.6,4.3c0,3.7-0.2,3.8-4.1,3.7c-3.8,0-4-0.2-3.9-4.5C23.1,19.2,23.3,19,27.4,19.1z
		"/>
	<path class="st0" d="M26.6,42.4c-3.5-0.1-3.6-0.2-3.6-4.3c0.1-3.6,0.2-3.7,4.2-3.7c3.8,0,3.9,0.3,3.8,4.5
		C30.9,42.3,30.7,42.4,26.6,42.4z"/>
</g>
</svg>
