<?xml version="1.0" encoding="utf-8"?>
<!-- Generator: Adobe Illustrator 26.4.1, SVG Export Plug-In . SVG Version: 6.00 Build 0)  -->
<svg version="1.1" id="Camada_1" xmlns="http://www.w3.org/2000/svg" xmlns:xlink="http://www.w3.org/1999/xlink" x="0px" y="0px"
	 viewBox="0 0 72 64.8" style="enable-background:new 0 0 72 64.8;" xml:space="preserve">
<style type="text/css">
	.st0{fill:#00C87E;}
</style>
<g>
	<path class="st0" d="M36.2,0c9.4,0,18.9,0,28.3,0C69.3,0,72,2.7,72,7.5c0,15.7,0,31.4,0,47.2c0,5.8-4.7,10.1-9.9,10.1
		c-17.4,0.1-34.7,0.1-52.1,0C4.7,64.7,0,60.4,0,54.7C0,38.9,0,23.2,0,7.5C0,2.7,2.7,0,7.5,0C17.1,0,26.6,0,36.2,0z M36.2,14.4
		c-9,0-18,0-27,0c-1.4,0-2.1,0-2.1,1.9c0.1,12.1,0,24.3,0.1,36.4c0,3.3,1.7,4.9,4.9,4.9c15.9,0,31.8,0,47.7,0c3.3,0,4.9-1.6,4.9-4.9
		c0-12.1,0-24.3,0.1-36.4c0-1.9-0.7-1.9-2.1-1.9C53.9,14.4,45.1,14.4,36.2,14.4z"/>
	<path class="st0" d="M54.6,28.8c-1.7,0-1.8,0.1-4-2.1c-1.1-1-2.4-0.9-3.3-0.5c-0.9,0.4-2.5,1.4-2.2,2.5c0.4,1.3,0.7,3.2,2.5,3.7
		c1.5,0.4,2.7,1.4,4.1,1.9c1.4,0.5,2.7,1.6,3.8,2.7c3.3,3.5,3.2,11.3-3.3,13.2c-1.5,0.4-2.1,0.6-1.8,2.1c0.3,1.5-0.5,1.7-1.8,1.7
		c-1.2,0-2.1-0.1-1.8-1.6c0.2-1.5-0.1-2-1.9-2.1c-1.3-0.1-2.6-1-3.6-2.1c-1.1-1.4-2.1-4-1.6-4.6c0.7-0.7,4.7-0.3,5.8,0.6
		c0.4,0.4,0.8,0.9,1.3,1.3c1.4,1,3.2,0.6,4.6-0.9c1.2-1.3,1.1-2.2-0.3-3.7c-1.4-1.5-3-2.4-5-3.1c-6.3-2-7.7-7.6-5.7-12.2
		c0.9-2,2.5-2.7,4-3.6c1-0.6,2.2-1.8,2.4-2.9c0.2-1.5,1.3-0.8,2.1-0.9c0.7-0.1,1.6-0.3,1.5,0.9c0,0.4,0,0.9,0,1.3
		c-0.1,0.9,0.3,1.3,1.2,1.3c3.2,0.2,4.6,2.6,5.9,4.9c0.6,1.1-0.2,2.2-1.6,2.2C55.5,28.8,55.1,28.8,54.6,28.8z"/>
	<path class="st0" d="M23.4,43.2c1.9,0,3.9,0,5.8,0c3.2,0,3.2,0,3.2,3.4c0,0.9,0,1.8,0,2.7c0.1,1.1-0.5,1.2-1.4,1.1
		c-5.1,0-10.2-0.1-15.2,0c-1.3,0-1.4-0.6-1.4-1.6c0.1-1.8-0.5-4,0.3-5.2c1-1.3,3.3-0.3,5.1-0.4C21,43.1,22.2,43.2,23.4,43.2z"/>
</g>
</svg>
