<?xml version="1.0" encoding="utf-8"?>
<!-- Generator: Adobe Illustrator 26.4.1, SVG Export Plug-In . SVG Version: 6.00 Build 0)  -->
<svg version="1.1" id="Camada_1" xmlns="http://www.w3.org/2000/svg" xmlns:xlink="http://www.w3.org/1999/xlink" x="0px" y="0px"
	 viewBox="0 0 72.9 73" style="enable-background:new 0 0 72.9 73;" xml:space="preserve">
<style type="text/css">
	.st0{fill:#00C87E;}
</style>
<g>
	<path class="st0" d="M35.8,73c-9.8-0.5-18.6-4-25.6-11.3C3.3,54.4-0.3,45.6,0,35.4c0.3-9.9,4.1-18.5,11.3-25.3
		C18.7,3.2,27.5-0.4,37.7,0c9.9,0.4,18.5,4.2,25.3,11.5c6.7,7.3,10.3,15.9,9.9,25.9c-0.3,9.8-4,18.2-11,25
		C54.7,69.4,46,72.8,35.8,73z M32.8,36.7c5.6,5.6,10.7,10.7,16,16c1.2-1.4,3-2.7,4.1-4.3c-4.5-4.5-8.8-8.8-12.9-12.9
		c0-7.1,0-13.9,0-20.7c-2.5,0-4.8,0-7.2,0C32.8,22.6,32.8,30.2,32.8,36.7z"/>
</g>
</svg>
