<?xml version="1.0" encoding="utf-8"?>
<!-- Generator: Adobe Illustrator 26.4.1, SVG Export Plug-In . SVG Version: 6.00 Build 0)  -->
<svg version="1.1" id="Camada_1" xmlns="http://www.w3.org/2000/svg" xmlns:xlink="http://www.w3.org/1999/xlink" x="0px" y="0px"
	 viewBox="0 0 72 72" style="enable-background:new 0 0 72 72;" xml:space="preserve">
<style type="text/css">
	.st0{fill:#00C87E;}
</style>
<path class="st0" d="M71.9,8.2C71.9,3,68.8,0,63.6,0c-9.2,0-18.3,0-27.5,0c-9.5,0-19,0-28.5,0C3.4,0,0,3.3,0,7.5c0,19,0,38,0,56.9
	c0,4.2,3.4,7.5,7.6,7.5c12.8,0,25.6,0,38.5,0.1c1.8,0,3.1-0.5,4.2-1.9c6.1-7.5,13.2-14.2,20.1-21.1c1.2-1.1,1.6-2.3,1.6-3.9
	C71.9,32.9,72,20.5,71.9,8.2z M19.8,16c5.5,0,11,0,16.5,0c5.8,0,11.6,0,17.5,0c2.3,0,2.3,0,2.3,2.5c0,0.5,0,1,0,1.5c0,4,0,4-3.8,4
	c-11.1,0-22.3,0-33.4,0C16,24,16,24,16,21c0-0.3,0-0.7,0-1C16,16,16,16,19.8,16z M35.6,39.5c-1.1,1.4-3.7,0.3-5.6,0.5
	c-1.3,0.1-2.7,0-4,0c-2.2,0-4.3,0-6.5,0C16,40,16,40,16,36.2c0-1,0-2,0-3c-0.1-1.2,0.6-1.3,1.5-1.3c5.6,0,11.3,0.1,16.9,0
	c1.5,0,1.6,0.7,1.5,1.8C35.9,35.7,36.6,38.2,35.6,39.5z M64,45.5c-6.2,6.2-12.4,12.4-18.6,18.6c-0.3,0.3-0.7,0.5-1,0.7
	c-0.1-0.5-0.3-0.9-0.3-1.4c0-3,0-6,0-8.9c0-2.8,0.2-5.6-0.1-8.4c-0.2-2,0.7-2.1,2.3-2.1c5.6,0.1,11.3,0,16.9,0
	c0.6,0,1.4-0.3,1.7,0.5C64.9,44.6,64.3,45.1,64,45.5z"/>
</svg>
