<?xml version="1.0" encoding="utf-8"?>
<!-- Generator: Adobe Illustrator 26.4.1, SVG Export Plug-In . SVG Version: 6.00 Build 0)  -->
<svg version="1.1" id="Camada_1" xmlns="http://www.w3.org/2000/svg" xmlns:xlink="http://www.w3.org/1999/xlink" x="0px" y="0px"
	 viewBox="0 0 73 62" style="enable-background:new 0 0 73 62;" xml:space="preserve">
<style type="text/css">
	.st0{fill:#00C87E;}
</style>
<g>
	<path class="st0" d="M25.6,28.1c0-9.4,0-18.6,0-27.9c7.2,0,14.2,0,21.5,0c-0.1-0.1,0.1,0,0.2,0.2c0.1,0.1,0.1,0.3,0.1,0.4
		c0,9.1,0,18.2,0,27.4C40.2,28.1,33.1,28.1,25.6,28.1z"/>
	<path class="st0" d="M25.7,33.8c7.2,0,14.3,0,21.6,0c0,9.3,0,18.5,0,27.9c0.1-0.1,0,0.1-0.2,0.2C47,61.9,46.9,62,46.7,62
		c-7,0-13.9,0-21,0C25.7,52.6,25.7,43.4,25.7,33.8z"/>
	<path class="st0" d="M19.9,28.2c-6.6,0-13.1,0-19.9,0c0-7-0.2-14,0.1-20.9C0.2,3.5,4.2,0.1,7.6,0c4.1-0.1,8.2,0,12.4,0
		C19.9,9.4,19.9,18.6,19.9,28.2z"/>
	<path class="st0" d="M53.1,0c4.2,0,8.3,0,12.4,0c3.3,0,7.3,3.4,7.5,7.2c0.2,6.9,0.1,13.9,0.1,20.9c-6.8,0-13.2,0-19.9,0
		C53.1,18.9,53.1,9.7,53.1,0z"/>
	<path class="st0" d="M0.1,33.8c6.7,0,13.2,0,19.9,0c0,9.3,0,18.6,0,28.1c-4.2,0-8.2,0-12.3,0c-3.3,0-7.4-3.4-7.5-7.2
		C-0.1,47.8,0.1,40.9,0.1,33.8z"/>
	<path class="st0" d="M53,62c0-9.5,0-18.7,0-28.1c6.6,0,13,0,20,0c0,1.5,0,3.1,0,4.7c0,5,0,10,0,15c0,4.6-3.7,8.3-8.2,8.4
		C61,62,57.2,62,53,62z"/>
</g>
</svg>
