<?xml version="1.0" encoding="utf-8"?>
<!-- Generator: Adobe Illustrator 26.4.1, SVG Export Plug-In . SVG Version: 6.00 Build 0)  -->
<svg version="1.1" id="Camada_1" xmlns="http://www.w3.org/2000/svg" xmlns:xlink="http://www.w3.org/1999/xlink" x="0px" y="0px"
	 viewBox="0 0 73 53.4" style="enable-background:new 0 0 73 53.4;" xml:space="preserve">
<style type="text/css">
	.st0{fill:#00C87E;}
</style>
<g>
	<path class="st0" d="M0.1,8.6c0-2.2,0-4.3,0-6.6c17.8,0,35.4,0,53.2,0c0,2.2,0,4.3,0,6.6C35.6,8.6,17.9,8.6,0.1,8.6z"/>
	<path class="st0" d="M0,30c0-2.3,0-4.3,0-6.6c17.7,0,35.3,0,53.2,0c0,2.1,0,4.2,0,6.6C35.6,30,18,30,0,30z"/>
	<path class="st0" d="M53.3,44.8c0,2.3,0,4.3,0,6.6c-17.7,0-35.3,0-53.1,0c0-2.1,0-4.2,0-6.6C17.7,44.8,35.3,44.8,53.3,44.8z"/>
	<path class="st0" d="M73,5.5c-0.1,2.9-2.6,5.2-5.5,5.1c-2.9-0.1-5.2-2.6-5.1-5.5C62.5,2.2,65-0.1,67.9,0C70.8,0.1,73.1,2.6,73,5.5z
		"/>
	<path class="st0" d="M68,21.4c2.9,0.2,5.2,2.8,5,5.7c-0.2,2.9-2.8,5.2-5.7,5c-2.9-0.2-5.2-2.8-5-5.7C62.5,23.5,65.1,21.2,68,21.4z"
		/>
	<path class="st0" d="M67.8,42.8c2.9,0.1,5.3,2.6,5.2,5.5c-0.1,2.9-2.6,5.3-5.5,5.2c-2.9-0.1-5.3-2.6-5.2-5.5
		C62.4,45,64.9,42.7,67.8,42.8z"/>
</g>
</svg>
