<?xml version="1.0" encoding="utf-8"?>
<!-- Generator: Adobe Illustrator 26.4.1, SVG Export Plug-In . SVG Version: 6.00 Build 0)  -->
<svg version="1.1" id="Camada_1" xmlns="http://www.w3.org/2000/svg" xmlns:xlink="http://www.w3.org/1999/xlink" x="0px" y="0px"
	 viewBox="0 0 73 72.8" style="enable-background:new 0 0 73 72.8;" xml:space="preserve">
<style type="text/css">
	.st0{fill:#00C87E;}
</style>
<g>
	<path class="st0" d="M40.2,7.1c0-2.4,0-4.5,0-6.6c17,0.7,31.9,16.1,32.8,33.8C74.1,56,57.3,71.4,40.4,72.7
		c-0.6-2.2-0.3-4.5-0.2-7.1C48.8,64,56.1,59.9,61,52.3c3.4-5.3,5-11,4.7-17.3C65.1,21.5,56.8,12.3,40.2,7.1z"/>
	<path class="st0" d="M23.5,40.1c2.5,0,5.6,0,9.1,0c0-7.3,0-14.4,0-21.7c2.5,0,4.7,0,7.3,0c0,7,0,14.1,0,21.4c3.6,0.8,6.9,0,9.5,0.4
		c-4.3,4.3-8.8,8.8-13.2,13.2C32.4,49.4,28,44.7,23.5,40.1z"/>
	<path class="st0" d="M18.4,13.5c-1.7-1.9-3.1-3.5-4.9-5.4c5.2-4.8,11.6-7,18.8-8.1c0.8,2.4,0.2,4.7,0.5,7.2
		C27.6,8.4,22.8,9.9,18.4,13.5z"/>
	<path class="st0" d="M7.3,32.6c-2.7,0-4.8,0-7.3,0c0.7-7.2,3.3-13.5,7.8-19c1.6,1.7,3.2,3.3,5,5.3C10.2,22.7,8.1,27.3,7.3,32.6z"/>
	<path class="st0" d="M0,40.3c2.4-0.4,4.7-0.3,7.2-0.1c1,5.1,2.8,9.8,6.1,14.3c-1.8,1.5-3.6,3-5.5,4.6C3.3,53.9,0.9,47.5,0,40.3z"/>
	<path class="st0" d="M32.4,65.5c0.5,2.5,0.2,4.8,0.2,7.3C25.3,72,19,69.5,13.6,64.9c1.7-1.7,3.3-3.3,5-5.1
		C22.7,62.6,27.4,64.7,32.4,65.5z"/>
</g>
</svg>
